# xmcd CD database file
#
# Track frame offsets:
#	150
#	14715
#	25675
#	44712
#
# Disc length: 822 seconds
#
# Revision: 0
# Processed by: cddbd v1.4PL0 Copyright (c) Steve Scherf et al.
# Submitted via: Feurio! 1.63 - http://www.feurio.com
#
DISCID=2f033404
DTITLE=Village-Boys - It's Country~Time
DYEAR=1900
DGENRE=
TTITLE0=Trucker Daddy
TTITLE1=Hochzeit
TTITLE2=Mitropa
TTITLE3=Der Heizer
EXTD=
EXTT0=
EXTT1=
EXTT2=
EXTT3=
PLAYORDER=
